<svg xmlns="http://www.w3.org/2000/svg" width="60" height="60" viewBox="0 0 60 60"><defs><linearGradient id="51afa" x1="29.5" x2="29.5" y1="11.77" y2="60" gradientUnits="userSpaceOnUse"><stop offset="0" stop-color="#ff955d"/><stop offset="1" stop-color="#ff4cab"/></linearGradient><linearGradient id="51afb" x1="29.5" x2="29.5" y1=".21" y2="6" gradientUnits="userSpaceOnUse"><stop offset="0" stop-color="#ff955d"/><stop offset="1" stop-color="#ff4cab"/></linearGradient><linearGradient id="51afc" x1="48" x2="48" y1="8.21" y2="14" gradientUnits="userSpaceOnUse"><stop offset="0" stop-color="#ff955d"/><stop offset="1" stop-color="#ff4cab"/></linearGradient><linearGradient id="51afe" x1="56.81" x2="56.81" y1="27.13" y2="29.98" gradientUnits="userSpaceOnUse"><stop offset="0" stop-color="#ff955d"/><stop offset="1" stop-color="#ff4cab"/></linearGradient><linearGradient id="51aff" x1="3.2" x2="3.2" y1="27.13" y2="29.98" gradientUnits="userSpaceOnUse"><stop offset="0" stop-color="#ff955d"/><stop offset="1" stop-color="#ff4cab"/></linearGradient><linearGradient id="51afg" x1="11" x2="11" y1="8.21" y2="14" gradientUnits="userSpaceOnUse"><stop offset="0" stop-color="#ff955d"/><stop offset="1" stop-color="#ff4cab"/></linearGradient><clipPath id="51afd"><path d="M.01 27.03H60v2.95H.01z"/></clipPath></defs><g><g><g><path fill="url(#51afa)" d="M39.76 35.636c-3.179 3.314-4.84 7.9-4.84 12.88v1.149H24.101v-1.15c0-4.721-1.913-9.43-5.093-13-2.796-3.059-3.944-7.01-3.442-11.094.897-6.116 6.455-11.864 13.878-11.864 7.77 0 14.01 6.25 14.01 13.772a13.49 13.49 0 0 1-3.694 9.307zm-4.733 19.52c0 1.272-1.016 2.3-2.295 2.3h-6.24a2.281 2.281 0 0 1-2.294-2.3v-2.937h10.817v2.936zM29.433 10c-8.87 0-15.276 6.766-16.292 14.033-.634 4.844.896 9.566 4.075 13.138 2.798 3.059 4.328 7.145 4.328 11.354l-.012 6.63A4.838 4.838 0 0 0 26.373 60h6.24a4.838 4.838 0 0 0 4.84-4.845l.013-6.63c0-4.331 1.398-8.295 4.075-11.097A15.952 15.952 0 0 0 46 26.332C45.988 17.267 38.47 10 29.433 10z"/></g><g><path fill="url(#51afb)" d="M28 6h3V0h-3z"/></g><g><path fill="url(#51afc)" d="M45 12.212L46.74 14 51 9.788 49.249 8z"/></g><g><g/><g clip-path="url(#51afd)"><path fill="url(#51afe)" d="M53.61 29.98h6.392v-2.95H53.61z"/></g><g clip-path="url(#51afd)"><path fill="url(#51aff)" d="M.01 29.98h6.383v-2.95H.01z"/></g></g><g><path fill="url(#51afg)" d="M9.751 8L8 9.788 12.26 14 14 12.212z"/></g></g></g></svg>